<svg xmlns="http://www.w3.org/2000/svg" width="512" height="512" viewBox="0 0 512 512" role="img" aria-labelledby="title desc">
  <title id="title">premeetingprep</title>
  <desc id="desc">A Thermo Fisher inspired red, black, white, and gray plugin icon showing a scientific briefing card, molecular pathway, completed checklist, and meeting clock.</desc>
  <defs>
    <linearGradient id="background" x1="48" y1="32" x2="462" y2="480" gradientUnits="userSpaceOnUse">
      <stop stop-color="#151515"/>
      <stop offset="1" stop-color="#343434"/>
    </linearGradient>
    <linearGradient id="science" x1="150" y1="180" x2="354" y2="280" gradientUnits="userSpaceOnUse">
      <stop stop-color="#D71920"/>
      <stop offset="1" stop-color="#F05A64"/>
    </linearGradient>
    <filter id="shadow" x="70" y="50" width="390" height="420" filterUnits="userSpaceOnUse">
      <feDropShadow dx="0" dy="12" stdDeviation="14" flood-color="#07151E" flood-opacity="0.34"/>
    </filter>
  </defs>

  <rect x="20" y="20" width="472" height="472" rx="112" fill="url(#background)"/>
  <path d="M20 132V102C20 56.713 56.713 20 102 20H410C455.287 20 492 56.713 492 102V132H20Z" fill="#D71920"/>

  <g filter="url(#shadow)">
    <rect x="102" y="80" width="308" height="354" rx="42" fill="#F8FBFC"/>
    <path d="M102 122C102 98.804 120.804 80 144 80H368C391.196 80 410 98.804 410 122V158H102V122Z" fill="#E7E7E7"/>
  </g>

  <rect x="148" y="60" width="24" height="54" rx="12" fill="#202020"/>
  <rect x="214" y="60" width="24" height="54" rx="12" fill="#202020"/>

  <path d="M151 226C182 184 216 184 248 226C280 268 314 268 350 220" fill="none" stroke="url(#science)" stroke-width="18" stroke-linecap="round"/>
  <circle cx="151" cy="226" r="15" fill="#222222"/>
  <circle cx="248" cy="226" r="15" fill="#222222"/>
  <circle cx="350" cy="220" r="15" fill="#222222"/>

  <g fill="none" stroke-linecap="round" stroke-linejoin="round">
    <path d="M148 304L160 316L180 292" stroke="#D71920" stroke-width="13"/>
    <path d="M206 306H330" stroke="#9A9A9A" stroke-width="14"/>
    <path d="M148 358L160 370L180 346" stroke="#D71920" stroke-width="13"/>
    <path d="M206 360H302" stroke="#9A9A9A" stroke-width="14"/>
  </g>

  <circle cx="382" cy="126" r="64" fill="#D71920" stroke="#FFFFFF" stroke-width="12"/>
  <circle cx="382" cy="126" r="43" fill="#FFFFFF"/>
  <path d="M382 98V128L402 142" fill="none" stroke="#202020" stroke-width="11" stroke-linecap="round" stroke-linejoin="round"/>
  <circle cx="382" cy="126" r="7" fill="#202020"/>
</svg>
